<?xml version="1.0" encoding="UTF-8"?>
<svg version="1.1" xmlns="http://www.w3.org/2000/svg" width="1024" height="1024">
<path d="M0 0 C0.74446381 0.00359528 1.48892761 0.00719055 2.25595093 0.01089478 C3.0363826 0.01074875 3.81681427 0.01060272 4.62089539 0.01045227 C7.21273534 0.01115158 9.80450432 0.01894481 12.39633179 0.02676392 C14.18852194 0.02862803 15.9807126 0.03005196 17.77290344 0.03105164 C22.49938351 0.03487733 27.22583305 0.04470805 31.95230103 0.05575562 C36.77153104 0.06596863 41.59076596 0.07054902 46.41000366 0.07559204 C55.87290773 0.08633027 65.3357891 0.10340731 74.79867554 0.12442017 C74.81578526 47.49275126 74.83170699 94.86108257 74.84101868 142.22941589 C74.84115673 142.92991739 74.84129479 143.6304189 74.84143703 144.35214772 C74.84442959 159.5740795 74.84719982 174.79601131 74.84974087 190.01794317 C74.85098826 197.48222783 74.8522848 204.94651248 74.85360718 212.41079712 C74.85373794 213.15360318 74.8538687 213.89640924 74.85400342 214.66172457 C74.85826861 238.76013533 74.86578278 262.85854376 74.87497276 286.9569531 C74.88439557 311.71075094 74.89055871 336.46454747 74.89259053 361.21834707 C74.8928787 364.71059323 74.89320434 368.20283938 74.89355278 371.69508553 C74.89365391 372.72612307 74.89365391 372.72612307 74.89375709 373.77798966 C74.89494114 384.8651243 74.89958545 395.95225494 74.90550757 407.03938795 C74.91138074 418.17202765 74.91356581 429.30466345 74.91217691 440.43730503 C74.9115332 446.47475294 74.91255482 452.51218909 74.91788101 458.54963493 C74.92271319 464.06703781 74.92301539 469.5844209 74.91957443 475.10182465 C74.91914856 477.10721316 74.92044581 479.11260286 74.92355872 481.117989 C74.92751967 483.82519724 74.92544083 486.53233225 74.92172337 489.23953915 C74.92435038 490.03427182 74.92697739 490.82900449 74.92968401 491.64781997 C74.91282134 497.01027437 74.91282134 497.01027437 73.79867554 498.12442017 C71.33419426 498.21942722 68.89796724 498.24998694 66.43319702 498.23794556 C65.65001382 498.23806609 64.86683062 498.23818663 64.05991459 498.23831081 C61.51317105 498.23756168 58.96649981 498.22993347 56.41976929 498.22207642 C54.852102 498.220607 53.28443423 498.21958629 51.71676636 498.21902466 C48.20563584 498.2166093 44.69453226 498.21057644 41.18341064 498.20233154 C32.74549845 498.18263743 24.30757472 498.17060041 15.86965001 498.15768707 C11.46167865 498.15090431 7.05370769 498.14387243 2.64573669 498.13685608 C1.11945121 498.13443603 -0.40683428 498.13201707 -1.93311977 498.12959957 C-3.01162732 498.12789037 -4.09013487 498.12618116 -5.20132446 498.12442017 C-5.20007537 497.00215373 -5.19882627 495.87988729 -5.19753933 494.72361279 C-5.12341706 425.35555817 -5.22445032 355.98877313 -5.43643618 286.62103128 C-5.45527797 280.45254361 -5.4738108 274.28405502 -5.4922905 268.11556625 C-5.60988216 228.90214535 -5.73141978 189.6887382 -5.86028267 150.47535268 C-5.91928434 132.49180525 -5.97447733 114.50824868 -6.02638 96.52467936 C-6.05822065 85.54240673 -6.09320018 74.56015329 -6.13233637 63.57790419 C-6.15857221 56.1442622 -6.18123713 48.71061497 -6.20099563 41.27695296 C-6.21248879 36.99656517 -6.22565694 32.71619888 -6.24315453 28.43583107 C-6.25909267 24.52955252 -6.27049899 20.6232891 -6.27815556 16.71698578 C-6.28176161 15.29941305 -6.28709423 13.88184353 -6.29425282 12.46428428 C-6.30367271 10.55166545 -6.30642453 8.63901714 -6.30875492 6.72637653 C-6.3121724 5.6608878 -6.31558989 4.59539906 -6.31911093 3.49762279 C-6.1003746 -0.90955266 -3.86316915 0.00787325 0 0 Z " fill="#020202" transform="translate(478.2013244628906,329.8755798339844)"/>
<path d="M0 0 C27.06 0 54.12 0 82 0 C80.40287019 33.53972603 80.40287019 33.53972603 72 44 C70.948125 45.5778125 70.948125 45.5778125 69.875 47.1875 C65.27701971 52.56683642 56.91911966 56.1088254 50 57 C36.06532791 57.8347258 22.99256631 57.72811527 12 48 C4.86343329 39.72712559 1.76857245 31.43235091 0.8125 20.6875 C0.73064453 19.90955078 0.64878906 19.13160156 0.56445312 18.33007812 C-0.03920667 12.14636983 0 6.27894882 0 0 Z " fill="#020202" transform="translate(472,849)"/>
<path d="M0 0 C1.33853027 0.00845947 1.33853027 0.00845947 2.70410156 0.01708984 C13.32844255 0.2132614 20.0989722 2.48029018 28.25 9.3125 C29.11625 9.89 29.9825 10.4675 30.875 11.0625 C39.52808113 19.2601558 41.64205922 29.90561107 42.25 41.3125 C42.26007903 42.87049456 42.26261867 44.42854869 42.25927734 45.98657227 C42.25793793 46.79675308 42.25659851 47.6069339 42.25521851 48.44166565 C42.2534964 49.05904099 42.25177429 49.67641632 42.25 50.3125 C35.10228267 50.44549073 27.954524 50.5759958 20.80670929 50.70365143 C17.48472337 50.7630513 14.16276248 50.8234291 10.84082031 50.88525391 C-6.0247587 51.1985266 -22.88140303 51.39035691 -39.75 51.3125 C-39.76208002 49.55657629 -39.77068627 47.80062846 -39.77783203 46.04467773 C-39.78299835 45.06683823 -39.78816467 44.08899872 -39.79348755 43.08152771 C-39.6100061 31.39852353 -35.47269595 18.9533811 -27.375 10.375 C-19.09615317 2.88200397 -11.10016856 -0.07245541 0 0 Z " fill="#020202" transform="translate(511.75,257.6875)"/>
<path d="M0 0 C5.8300115 0.000103 11.65990496 -0.01373008 17.48988819 -0.03077221 C22.01863663 -0.04187835 26.5473559 -0.0439199 31.07611656 -0.04339027 C33.22784533 -0.04456548 35.37957497 -0.04896129 37.53129005 -0.05672264 C40.52045881 -0.06652709 43.50936208 -0.06364645 46.49853516 -0.05761719 C47.37380356 -0.06323669 48.24907196 -0.0688562 49.15086365 -0.074646 C54.18516981 -0.04886253 58.38623281 0.41246711 63.12036133 2.18530273 C66.27480527 5.50577004 67.99343117 7.86522905 68.43286133 12.43530273 C68.06532273 16.84576594 66.88755387 18.78560904 64.12036133 22.18530273 C60.77189707 24.41761224 59.66432396 24.44367932 55.7507782 24.47291565 C54.07897491 24.49221382 54.07897491 24.49221382 52.37339783 24.51190186 C51.1499617 24.51570862 49.92652557 24.51951538 48.66601562 24.5234375 C46.73397781 24.54074165 46.73397781 24.54074165 44.76290894 24.55839539 C41.22768574 24.58890538 37.69252765 24.60591978 34.15719962 24.61861157 C31.94784096 24.62669705 29.73850101 24.63687764 27.52915382 24.64762688 C20.61468799 24.68034711 13.70026757 24.70424692 6.78573483 24.71644074 C-1.19270931 24.73069456 -9.17026871 24.7745626 -17.14841968 24.84394222 C-23.31753747 24.89573795 -29.48640377 24.92061499 -35.65573567 24.92526287 C-39.33949806 24.92865996 -43.02236576 24.94349811 -46.70589638 24.98654366 C-50.81685719 25.03374282 -54.92589967 25.02518065 -59.03710938 25.01171875 C-60.86315453 25.04475601 -60.86315453 25.04475601 -62.72608948 25.07846069 C-70.73960958 24.98917006 -70.73960958 24.98917006 -73.96568871 22.71436882 C-77.83126425 18.43508897 -78.97102853 14.94286391 -78.87963867 9.18530273 C-77.3768107 5.12766721 -76.49805126 3.5975778 -72.87963867 1.18530273 C-70.79096985 0.86943054 -70.79096985 0.86943054 -68.28320312 0.77783203 C-66.80608101 0.72113091 -66.80608101 0.72113091 -65.29911804 0.6632843 C-64.18744766 0.63316757 -63.07577728 0.60305084 -61.93041992 0.57202148 C-60.72670242 0.53469406 -59.52298492 0.49736664 -58.28279114 0.45890808 C-38.86347694 -0.0899367 -19.42511705 -0.00171299 0 0 Z " fill="#040505" transform="translate(335.879638671875,415.814697265625)"/>
<path d="M0 0 C1.1047467 -0.00860046 2.20949341 -0.01720093 3.34771729 -0.02606201 C4.56539795 -0.03032196 5.78307861 -0.03458191 7.03765869 -0.03897095 C8.95484711 -0.05123718 8.95484711 -0.05123718 10.9107666 -0.06375122 C15.15649302 -0.08997677 19.40222931 -0.10528062 23.64801025 -0.11953735 C25.1096014 -0.12489705 26.57119249 -0.13027456 28.03278351 -0.13566971 C34.11318482 -0.15730034 40.19358347 -0.17603651 46.27401352 -0.1872921 C54.98728945 -0.20352739 63.70011914 -0.23669222 72.41322684 -0.29369295 C78.53984958 -0.33240568 84.66635304 -0.3519264 90.79309487 -0.35721266 C94.45210723 -0.36086474 98.11064373 -0.37286925 101.76952362 -0.4053154 C105.85396303 -0.4410155 109.937445 -0.43702189 114.02203369 -0.42959595 C115.23161743 -0.44600128 116.44120117 -0.46240662 117.68743896 -0.47930908 C126.82597952 -0.41119348 126.82597952 -0.41119348 130.52404785 2.56536865 C133.76384724 6.268614 133.76384724 6.268614 133.84332275 9.10702515 C133.3752968 15.08961775 132.09538575 17.95219234 127.78863525 22.15390015 C124.44072554 23.827855 120.6651181 23.33480471 116.98150635 23.35922241 C115.60976509 23.37407181 115.60976509 23.37407181 114.21031189 23.38922119 C111.16092558 23.42099409 108.11152475 23.44570813 105.06207275 23.4703064 C102.92198318 23.49091478 100.78189732 23.51191216 98.64181519 23.53327942 C94.12730055 23.57735686 89.61277233 23.61822319 85.09820557 23.65658569 C78.29703948 23.71441406 71.49596871 23.78052145 64.69488525 23.84725952 C54.98745586 23.94192909 45.28001397 24.01688459 35.5723381 24.08103371 C30.05163991 24.12024052 24.53230477 24.18318193 19.01232719 24.28057575 C15.99010711 24.33199182 12.96782583 24.3688358 9.94536209 24.40254021 C7.9601248 24.43026725 5.97520939 24.47866567 3.99038696 24.52781677 C2.24817368 24.54370094 2.24817368 24.54370094 0.47076416 24.55990601 C-0.51668793 24.5780687 -1.50414001 24.59623138 -2.52151489 24.61494446 C-6.03773968 24.01225824 -7.6670623 22.6077723 -10.21136475 20.15390015 C-12.35472854 16.36729077 -13.21136475 13.88834618 -13.21136475 9.52890015 C-12.01774508 5.50043379 -10.41551913 3.81100378 -7.21136475 1.15390015 C-4.66110147 -0.12123149 -2.85628595 0.01651428 0 0 Z " fill="#020303" transform="translate(633.2113647460938,415.8460998535156)"/>
<path d="M0 0 C4.92680014 2.92113824 9.27272368 6.55370563 13.6875 10.1875 C14.39592041 10.76701416 15.10434082 11.34652832 15.83422852 11.94360352 C17.25044897 13.102534 18.66575619 14.2625815 20.08007812 15.42382812 C22.52824713 17.43366779 24.98331891 19.43500868 27.4375 21.4375 C30.65941925 24.07140684 33.86807971 26.72035819 37.06640625 29.3828125 C44.02226381 35.16246542 50.96844185 40.85106107 58.34375 46.09375 C66.95516115 52.27370389 75.20827703 58.94247995 83.45922852 65.59082031 C88.38496948 69.54576675 93.40974342 73.33657611 98.51171875 77.0625 C104.72885957 81.90347621 104.72885957 81.90347621 105.53125 85.1484375 C105.43990928 91.65646388 103.67593942 95.32406058 99 100 C96.50167247 101.0287231 94.81212087 101.29840615 92.24389648 100.35473633 C86.99786984 97.75190767 82.65273558 94.58171168 78.1875 90.8125 C77.49100342 90.23588623 76.79450684 89.65927246 76.0769043 89.06518555 C74.04602419 87.38297852 72.02272401 85.69199671 70 84 C58.52124436 74.50852247 46.77277455 65.51769478 34.67822266 56.83276367 C26.80838056 51.16892569 18.92960846 45.46706909 11.64453125 39.05859375 C7.31477401 35.31745089 2.57852021 32.25349815 -2.21484375 29.14453125 C-7.15872743 25.84545782 -11.28367938 22.43264124 -14 17 C-14.51512617 12.90842645 -14.94367269 8.76410454 -12.953125 5.04296875 C-8.93471375 0.18541868 -6.18985013 -0.51582084 0 0 Z " fill="#030403" transform="translate(626,483)"/>
<path d="M0 0 C4.10097741 1.9344233 5.67585779 3.43536518 7.9375 7.375 C9.0871167 11.2972217 9.33674137 13.15686857 8 17 C4.3235415 21.02176123 0.19895797 24.38148154 -4.0625 27.75 C-4.72080811 28.27440674 -5.37911621 28.79881348 -6.05737305 29.33911133 C-10.08742214 32.53461842 -14.17252717 35.63614697 -18.3125 38.6875 C-21.95297219 41.38647076 -25.36564412 44.16861517 -28.6875 47.25 C-33.67331802 51.84430346 -38.994291 55.90013535 -44.39794922 59.98242188 C-49.9054311 64.14605394 -55.3098623 68.41967822 -60.6796875 72.75878906 C-64.44838213 75.79266877 -68.28095234 78.70615411 -72.1875 81.5625 C-77.60091463 85.56403757 -82.44816496 89.97498204 -87.30859375 94.6171875 C-90.893725 97.79125145 -93.62597645 99.77099607 -98.375 100.5625 C-103.24744505 99.80643094 -105.98279961 97.87561515 -109 94 C-110.42358175 89.22681412 -110.19523081 86.39719546 -108 82 C-106.00390625 79.859375 -106.00390625 79.859375 -103.5625 77.75 C-102.21671875 76.58210937 -102.21671875 76.58210937 -100.84375 75.390625 C-96.26821925 71.54416234 -91.64849471 67.75780412 -87 64 C-85.12440624 62.45905575 -83.24940137 60.91739444 -81.375 59.375 C-77.4561786 56.16919406 -73.49927295 53.02412715 -69.4921875 49.9296875 C-65.81616845 47.08336554 -62.16308514 44.20804438 -58.51123047 41.33081055 C-55.47587005 38.94031184 -52.43427255 36.55906346 -49.375 34.19921875 C-42.8567612 29.15556583 -36.63691764 23.95571872 -30.58984375 18.34375 C-27.29976491 15.36630309 -23.85282684 12.62883302 -20.36328125 9.890625 C-17.34680898 7.47744718 -14.46507648 4.93067331 -11.59375 2.34765625 C-8.09984849 -0.60674576 -4.38378156 -0.57144266 0 0 Z " fill="#040504" transform="translate(403,485)"/>
<path d="M0 0 C3.55729425 1.89217779 6.23866417 4.18351327 9 7.0625 C14.44576136 12.67619233 20.80583764 17.25375858 27 22 C27.54994629 22.4218457 28.09989258 22.84369141 28.66650391 23.27832031 C31.84808711 25.71896351 31.84808711 25.71896351 35.03149414 28.15722656 C39.2563546 31.4003476 43.41351961 34.72310244 47.5625 38.0625 C57.57984177 46.1088429 67.91285934 53.67786678 78.33789062 61.18310547 C84.61871389 65.70962062 90.8562589 70.28818596 97 75 C97.89203125 75.67289062 98.7840625 76.34578125 99.703125 77.0390625 C102.84884372 79.72469311 103.85978241 82.04277425 105 86 C104.24294558 90.96291232 102.90117607 93.83029444 99 97 C95.77239609 98.61380195 93.59420831 98.39935648 90 98 C83.35474953 94.77921769 77.81559371 89.43371273 72.22265625 84.6953125 C68.96055654 81.94481693 65.61616051 79.30894733 62.25 76.6875 C57.81322002 73.23181254 53.42594543 69.72593515 49.08007812 66.15649414 C41.4787316 59.91555317 33.69766537 54.00957319 25.72558594 48.25244141 C-13.34660859 19.89359054 -13.34660859 19.89359054 -14.875 13.125 C-15.12125759 10.26422029 -14.99927836 8.99813221 -13.9375 6.25 C-9.98409272 1.65894639 -6.17073865 -1.02845644 0 0 Z " fill="#030303" transform="translate(308,277)"/>
<path d="M0 0 C2.75079754 1.93980543 4.4954879 3.99097581 6 7 C6.32398518 10.62863401 5.99120681 12.62034728 3.84375 15.609375 C-1.02694194 20.82797351 -7.02678769 25.02343977 -12.66015625 29.37890625 C-15.15091198 31.31448111 -17.54196205 33.31230507 -19.875 35.4375 C-29.50562327 44.02531693 -40.36539761 51.3087278 -50.91479492 58.70532227 C-57.04445323 63.00930544 -63.04445578 67.4570916 -69 72 C-70.09089066 72.82065181 -71.18204516 73.64095299 -72.2734375 74.4609375 C-77.45829744 78.37771589 -82.50786375 82.36475773 -87.3125 86.75 C-98.43046595 96.87689929 -98.43046595 96.87689929 -103.1875 97.25 C-106.91522295 95.59323424 -109.10573964 93.55080961 -111 90 C-112.15285829 86.8600543 -112.5392772 84.3151356 -112 81 C-110.20886781 77.76440637 -107.69966454 75.4951445 -105 73 C-103.75863281 71.76830078 -103.75863281 71.76830078 -102.4921875 70.51171875 C-94.72645326 63.03801072 -86.16954054 56.86214522 -77.36865234 50.67041016 C-73.45580894 47.91101266 -69.57045693 45.11373473 -65.6875 42.3125 C-64.56384033 41.50220337 -64.56384033 41.50220337 -63.41748047 40.67553711 C-56.83920362 35.91522781 -50.3870666 31.01406453 -44 26 C-43.16597656 25.34902344 -42.33195313 24.69804687 -41.47265625 24.02734375 C-37.14437135 20.61101515 -32.9320596 17.08729698 -28.7722168 13.46948242 C-9.8869883 -2.94294969 -9.8869883 -2.94294969 0 0 Z " fill="#040504" transform="translate(725,278)"/>
<path d="M0 0 C0.92683594 -0.04253906 1.85367188 -0.08507812 2.80859375 -0.12890625 C6.74603137 0.85964192 8.40939917 3.32442932 10.5625 6.5625 C11.91802548 8.84000232 13.19603464 11.10121339 14.4375 13.4375 C22.46615328 28.10027317 31.53751659 42.21420983 40.92333984 56.04101562 C44.89901001 61.95262132 48.52415135 68.06795405 52.14624023 74.20068359 C54.45883044 78.10536988 56.79452097 81.969734 59.32421875 85.73828125 C59.74630615 86.36919678 60.16839355 87.0001123 60.60327148 87.65014648 C61.72887949 89.31390102 62.87159224 90.96604802 64.015625 92.6171875 C65.76406615 95.94629009 66.02904854 97.85603107 65.5625 101.5625 C63.76256226 104.26240662 62.478727 106.1043865 59.5625 107.5625 C57.42578125 107.87109375 57.42578125 107.87109375 54.875 108 C54.04613281 108.06058594 53.21726562 108.12117187 52.36328125 108.18359375 C45.05907425 106.56383236 40.7442587 99.50225941 36.9375 93.5625 C36.16684204 92.38627075 36.16684204 92.38627075 35.38061523 91.1862793 C31.60422208 85.35659039 28.099738 79.38749301 24.625 73.375 C17.51884737 61.08669917 9.50282908 49.44139154 1.48046875 37.7421875 C0.24082878 35.93135439 -0.99873621 34.12047004 -2.2381897 32.30950928 C-3.03571198 31.14777588 -3.83581274 29.98780825 -4.63851929 28.82965088 C-5.76543543 27.20336565 -6.8829248 25.57056052 -8 23.9375 C-8.63679687 23.01453125 -9.27359375 22.0915625 -9.9296875 21.140625 C-12.14602125 17.3510388 -12.97357093 13.92023789 -12.4375 9.5625 C-10.16429649 3.10181634 -6.89154104 0.14337464 0 0 Z " fill="#030404" transform="translate(593.4375,565.4375)"/>
<path d="M0 0 C3.26789949 2.38284338 4.63968458 4.04622388 6.0625 7.8125 C5.88796333 16.71386996 -1.53299356 23.89019552 -6.98046875 30.34765625 C-9.24903662 33.3270713 -11.03114295 36.46963614 -12.8125 39.75 C-15.64473981 44.85148804 -18.71761941 49.40239779 -22.41796875 53.9296875 C-24.52345436 56.68501435 -26.07221981 59.62962659 -27.69140625 62.6875 C-29.63466004 66.12154849 -31.95426211 69.2611757 -34.24609375 72.46875 C-36.48170911 75.69520603 -38.46971465 79.0371492 -40.4609375 82.41796875 C-43.19999297 87.01318618 -46.10350963 91.50300395 -49 96 C-49.39316406 96.62261719 -49.78632813 97.24523437 -50.19140625 97.88671875 C-54.96873561 105.32436485 -54.96873561 105.32436485 -58.8203125 106.60546875 C-62.80922242 107.37140012 -64.60237122 107.20256561 -68.3125 105.3125 C-72.81621005 101.43721461 -72.81621005 101.43721461 -74 99 C-73.72331784 92.83613636 -71.56232854 88.96351621 -68.3125 83.9375 C-67.82845703 83.16801025 -67.34441406 82.39852051 -66.84570312 81.60571289 C-65.24196438 79.06299627 -63.62100855 76.53173521 -62 74 C-60.84662311 72.17773683 -59.69429874 70.35480711 -58.54296875 68.53125 C-52.68083321 59.26474435 -46.74450592 50.04744252 -40.77050781 40.8527832 C-37.37561413 35.61424199 -34.09149406 30.31619804 -30.83203125 24.9921875 C-13.11885618 -3.93807285 -13.11885618 -3.93807285 0 0 Z " fill="#050606" transform="translate(439,567)"/>
<path d="M0 0 C3.9701814 2.28869281 6.35813593 4.73894641 8.4375 8.82421875 C9 12 9 12 7.5078125 15.04296875 C6.32832031 16.59951172 6.32832031 16.59951172 5.125 18.1875 C4.70951904 18.74993408 4.29403809 19.31236816 3.8659668 19.8918457 C2.59445735 21.6082263 1.29850299 23.30399609 0 25 C-1.40125956 26.8918262 -2.797501 28.78738487 -4.1875 30.6875 C-4.83976563 31.57695312 -5.49203125 32.46640625 -6.1640625 33.3828125 C-8.46782 36.66689234 -10.48697541 40.07633084 -12.5078125 43.5390625 C-14.57827025 46.95369177 -16.89373404 50.17286663 -19.20703125 53.42578125 C-23.28365356 59.27870958 -26.99393432 65.37606466 -30.75 71.4375 C-31.95801308 73.38527353 -33.14979812 75.1917416 -34.5625 77 C-36.34744914 79.4834075 -37.56946016 82.12033234 -38.90234375 84.8671875 C-40.33368213 87.64836456 -42.0184753 90.22660092 -43.71484375 92.8515625 C-45.1504808 95.25156365 -46.31540189 97.71741095 -47.5 100.25 C-49.45589073 104.18600302 -50.95994047 106.9329928 -55 109 C-57.81626758 109.59078526 -60.19280204 109.66486267 -63 109 C-66.1619193 106.52545446 -68.88175521 103.91385676 -70 100 C-69.71408981 93.33829264 -67.90047159 89.46630424 -64.125 84.0625 C-63.11679464 82.56406634 -62.10899337 81.06536072 -61.1015625 79.56640625 C-60.5849707 78.80859863 -60.06837891 78.05079102 -59.53613281 77.27001953 C-57.13222651 73.71764813 -54.81851324 70.10843449 -52.5 66.5 C-49.80362176 62.31963522 -47.10052423 58.14469741 -44.35546875 53.99609375 C-38.24877387 44.72836541 -32.56097394 35.26180922 -27.03393555 25.63647461 C-10.50324278 -3.08918905 -10.50324278 -3.08918905 0 0 Z " fill="#040605" transform="translate(651,168)"/>
<path d="M0 0 C4.81749197 3.84938353 7.22034158 8.69940043 10 14.0625 C15.27194273 23.93755016 21.21582261 33.23121885 27.39453125 42.55615234 C29.96107274 46.4629468 32.45064801 50.41717506 34.9375 54.375 C35.91657695 55.929744 36.89574502 57.48443062 37.875 59.0390625 C38.37515625 59.83344727 38.8753125 60.62783203 39.390625 61.44628906 C42.39850728 66.21911197 45.41580162 70.98591455 48.4375 75.75 C49.01685303 76.66700684 49.59620605 77.58401367 50.19311523 78.52880859 C52.6601683 82.41478509 55.1418778 86.24438448 57.875 89.94921875 C60 93 60 93 60.5625 96.0625 C59.83835594 99.84414118 58.42894492 102.03128955 56 105 C53.05907478 106.85580396 51.00866206 107.26599032 47.5625 106.9375 C46.82128906 106.88464844 46.08007812 106.83179688 45.31640625 106.77734375 C38.4511283 104.4734815 34.84238481 96.39553742 31.25 90.625 C30.62802734 89.63693359 30.00605469 88.64886719 29.36523438 87.63085938 C25.65329091 81.71410628 22.01573462 75.75762476 18.46264648 69.74438477 C15.20807524 64.26692733 11.75907604 58.92054325 8.3125 53.5625 C1.34209316 42.7068233 -5.17524842 31.60903783 -11.59643555 20.42163086 C-12.57706933 18.7297007 -13.5963362 17.0598383 -14.64379883 15.40844727 C-16.56516314 11.99633945 -16.61866721 9.84948489 -16 6 C-11.88402455 1.09103845 -6.37418214 -1.53899172 0 0 Z " fill="#030404" transform="translate(384,170)"/>
<path d="M0 0 C3.56328551 3.33167928 5.2703201 5.49085293 5.62145996 10.40161133 C5.64494273 12.12825954 5.64109971 13.85541709 5.61523438 15.58203125 C5.62078339 16.52911957 5.6263324 17.47620789 5.63204956 18.45199585 C5.64382955 21.57268375 5.61958664 24.69191434 5.59375 27.8125 C5.59203839 29.98673435 5.59210509 32.16097077 5.59387207 34.33520508 C5.59221975 38.88805939 5.57353731 43.44042078 5.54199219 47.99316406 C5.50231532 53.82403631 5.49794762 59.65426312 5.50545502 65.48524475 C5.50852708 69.97373346 5.4963957 74.46207754 5.47932434 78.95053101 C5.47230166 81.1002817 5.46916892 83.25004879 5.47001648 85.39981079 C5.46821532 88.40616381 5.44680565 91.41174883 5.41992188 94.41796875 C5.42285248 95.3033432 5.42578308 96.18871765 5.42880249 97.10092163 C5.34744884 103.00840924 4.43110565 107.39524395 0.25 111.875 C-3.05318727 113.52659363 -5.35072662 113.44042955 -9 113 C-13.02308264 110.87459785 -15.31488431 109.21562037 -17 105 C-17.25447559 102.97565556 -17.25447559 102.97565556 -17.26069641 100.79420471 C-17.26778122 99.9629306 -17.27486603 99.13165649 -17.28216553 98.27519226 C-17.27968811 97.37170547 -17.27721069 96.46821869 -17.2746582 95.53735352 C-17.27976913 94.57919739 -17.28488007 93.62104126 -17.29014587 92.6338501 C-17.30404984 89.465472 -17.30308451 86.29731123 -17.30078125 83.12890625 C-17.30466766 80.92699604 -17.30900222 78.72508658 -17.31376648 76.5231781 C-17.32123037 71.90727305 -17.32093611 67.29144449 -17.31567383 62.67553711 C-17.30987825 56.75936971 -17.3268117 50.84351528 -17.3500185 44.92739964 C-17.36474755 40.37979806 -17.36562867 35.832272 -17.36250877 31.2846508 C-17.36302238 29.10335609 -17.3682674 26.9220572 -17.37832069 24.7407856 C-17.39065183 21.69099693 -17.38391319 18.64181984 -17.37231445 15.59204102 C-17.37995819 14.69057846 -17.38760193 13.78911591 -17.39547729 12.8603363 C-17.35550236 8.10679102 -17.1674655 4.81182841 -14 1 C-8.7431121 -2.13391394 -5.58672142 -2.5864451 0 0 Z " fill="#040505" transform="translate(519,117)"/>
<path d="M0 0 C0.99 0.33 1.98 0.66 3 1 C3.36923077 7.4 3.36923077 7.4 1.5 10.4375 C1.005 10.953125 0.51 11.46875 0 12 C0.020625 11.0925 0.04125 10.185 0.0625 9.25 C0.12396564 6.13912132 0.12396564 6.13912132 -0.5625 3.75 C-1 2 -1 2 0 0 Z " fill="#0E1815" transform="translate(605,251)"/>
<path d="M0 0 C2.125 0.375 2.125 0.375 4 1 C2.07423885 3.43929746 0.19909405 5.80090595 -2 8 C-2.125 5.125 -2.125 5.125 -2 2 C-1.34 1.34 -0.68 0.68 0 0 Z " fill="#172626" transform="translate(407,630)"/>
</svg>
